<svg xmlns="http://www.w3.org/2000/svg" width="31.88" height="32" version="1.1" xmlns:xlink="http://www.w3.org/1999/xlink" xmlns:svgjs="http://svgjs.com/svgjs" width="47.5" height="47.5"><svg xmlns="http://www.w3.org/2000/svg" enable-background="new 0 0 47.5 47.5" viewBox="0 0 47.5 47.5" id="SvgjsSvg1000"><path fill="#bdddf4" d="M0 0h-6l-7-9h10l3 9z" transform="matrix(1.25 0 0 -1.25 17.5 5)"></path><path fill="#5dadec" d="m0 0-7 9h-6l3-9H0z" transform="matrix(1.25 0 0 -1.25 46.25 16.25)"></path><path fill="#4289c1" d="M0 0h10L-8-21 0 0Z" transform="matrix(1.25 0 0 -1.25 33.75 16.25)"></path><path fill="#8ccaf7" d="M0 0h-10L8-21 0 0Z" transform="matrix(1.25 0 0 -1.25 13.75 16.25)"></path><path fill="#8ccaf7" d="m0 0-3-9h16l-3 9H0Z" transform="matrix(1.25 0 0 -1.25 17.5 5)"></path><path fill="#5dadec" d="m0 0-8 21H8L0 0Z" transform="matrix(1.25 0 0 -1.25 23.75 42.5)"></path></svg><style>@media (prefers-color-scheme: light) { :root { filter: none; } }
</style></svg>